<mxfile host="app.diagrams.net" agent="Mozilla/5.0 (Windows NT 10.0; Win64; x64) AppleWebKit/537.36 (KHTML, like Gecko) Chrome/138.0.0.0 Safari/537.36" version="28.0.9">
  <diagram name="Page-1" id="nR5Fpz3u4IT1ke6qpr-m">
    <mxGraphModel grid="1" page="1" gridSize="10" guides="1" tooltips="1" connect="1" arrows="1" fold="1" pageScale="1" pageWidth="850" pageHeight="1100" math="0" shadow="0">
      <root>
        <mxCell id="0" />
        <mxCell id="1" parent="0" />
        <mxCell id="W-a-ckVkiCIQZMIdsilt-6" value="" style="edgeStyle=orthogonalEdgeStyle;rounded=0;orthogonalLoop=1;jettySize=auto;html=1;" edge="1" parent="1" source="W-a-ckVkiCIQZMIdsilt-1" target="W-a-ckVkiCIQZMIdsilt-5">
          <mxGeometry relative="1" as="geometry">
            <Array as="points">
              <mxPoint x="430" y="390" />
              <mxPoint x="430" y="390" />
            </Array>
          </mxGeometry>
        </mxCell>
        <mxCell id="W-a-ckVkiCIQZMIdsilt-1" value="develop" style="ellipse;whiteSpace=wrap;html=1;" vertex="1" parent="1">
          <mxGeometry x="370" y="240" width="120" height="80" as="geometry" />
        </mxCell>
        <mxCell id="W-a-ckVkiCIQZMIdsilt-4" value="" style="edgeStyle=orthogonalEdgeStyle;rounded=0;orthogonalLoop=1;jettySize=auto;html=1;" edge="1" parent="1" source="W-a-ckVkiCIQZMIdsilt-3" target="W-a-ckVkiCIQZMIdsilt-1">
          <mxGeometry relative="1" as="geometry" />
        </mxCell>
        <mxCell id="W-a-ckVkiCIQZMIdsilt-3" value="plan" style="ellipse;whiteSpace=wrap;html=1;" vertex="1" parent="1">
          <mxGeometry x="370" y="120" width="120" height="80" as="geometry" />
        </mxCell>
        <mxCell id="W-a-ckVkiCIQZMIdsilt-8" value="" style="edgeStyle=orthogonalEdgeStyle;rounded=0;orthogonalLoop=1;jettySize=auto;html=1;" edge="1" parent="1" source="W-a-ckVkiCIQZMIdsilt-5" target="W-a-ckVkiCIQZMIdsilt-7">
          <mxGeometry relative="1" as="geometry" />
        </mxCell>
        <mxCell id="W-a-ckVkiCIQZMIdsilt-5" value="build" style="ellipse;whiteSpace=wrap;html=1;" vertex="1" parent="1">
          <mxGeometry x="370" y="360" width="120" height="80" as="geometry" />
        </mxCell>
        <mxCell id="W-a-ckVkiCIQZMIdsilt-10" value="" style="edgeStyle=orthogonalEdgeStyle;rounded=0;orthogonalLoop=1;jettySize=auto;html=1;" edge="1" parent="1" source="W-a-ckVkiCIQZMIdsilt-7" target="W-a-ckVkiCIQZMIdsilt-9">
          <mxGeometry relative="1" as="geometry" />
        </mxCell>
        <mxCell id="W-a-ckVkiCIQZMIdsilt-7" value="test" style="ellipse;whiteSpace=wrap;html=1;" vertex="1" parent="1">
          <mxGeometry x="370" y="480" width="120" height="80" as="geometry" />
        </mxCell>
        <mxCell id="W-a-ckVkiCIQZMIdsilt-12" value="" style="edgeStyle=orthogonalEdgeStyle;rounded=0;orthogonalLoop=1;jettySize=auto;html=1;" edge="1" parent="1" source="W-a-ckVkiCIQZMIdsilt-9" target="W-a-ckVkiCIQZMIdsilt-11">
          <mxGeometry relative="1" as="geometry" />
        </mxCell>
        <mxCell id="W-a-ckVkiCIQZMIdsilt-9" value="release" style="ellipse;whiteSpace=wrap;html=1;" vertex="1" parent="1">
          <mxGeometry x="370" y="600" width="120" height="80" as="geometry" />
        </mxCell>
        <mxCell id="W-a-ckVkiCIQZMIdsilt-14" value="" style="edgeStyle=orthogonalEdgeStyle;rounded=0;orthogonalLoop=1;jettySize=auto;html=1;" edge="1" parent="1" source="W-a-ckVkiCIQZMIdsilt-11" target="W-a-ckVkiCIQZMIdsilt-13">
          <mxGeometry relative="1" as="geometry" />
        </mxCell>
        <mxCell id="W-a-ckVkiCIQZMIdsilt-11" value="deploy" style="ellipse;whiteSpace=wrap;html=1;" vertex="1" parent="1">
          <mxGeometry x="370" y="720" width="120" height="80" as="geometry" />
        </mxCell>
        <mxCell id="W-a-ckVkiCIQZMIdsilt-13" value="monitor" style="ellipse;whiteSpace=wrap;html=1;" vertex="1" parent="1">
          <mxGeometry x="370" y="840" width="120" height="80" as="geometry" />
        </mxCell>
      </root>
    </mxGraphModel>
  </diagram>
</mxfile>
